# xmcd CD database file
# Copyright (C) 1995-1998 Ti Kan
#
# Track frame offsets:
#	183
#	11408
#	32370
#	42805
#	56880
#	68188
#	77460
#	88095
#	101473
#	113983
#	130538
#	142848
#
# Disc length: 2065 seconds
#
# Revision: 1
# Processed by: cddbd v1.4PL0 Copyright (c) Steve Scherf et al.
# Submitted via: CDex 1.30Release
#
DISCID=8c080f0c
DTITLE=Winter, Johnny - Gangster of Love
DYEAR=1996
DGENRE=Blues
TTITLE0=Gangster of love
TTITLE1=Goin' down slow
TTITLE2=That's what love does
TTITLE3=Low down gal of mine
TTITLE4=Can't believe you wanna leave
TTITLE5=Road runner
TTITLE6=Out of sight
TTITLE7=Five after four am
TTITLE8=Leavin' blues
TTITLE9=Kind hearted woman
TTITLE10=Leave my woman alone
TTITLE11=Parchman farm
EXTD=YEAR: 1996 ID3G:   0
EXTT0=
EXTT1=
EXTT2=
EXTT3=
EXTT4=
EXTT5=
EXTT6=
EXTT7=
EXTT8=
EXTT9=
EXTT10=
EXTT11=
PLAYORDER=
